<?xml version="1.0" encoding="utf-8"?>
<!-- Generator: Adobe Illustrator 21.0.0, SVG Export Plug-In . SVG Version: 6.00 Build 0)  -->
<svg version="1.1" id="Layer_1" xmlns="http://www.w3.org/2000/svg" xmlns:xlink="http://www.w3.org/1999/xlink" x="0px" y="0px"
	 viewBox="0 0 512 502" style="enable-background:new 0 0 512 502;" xml:space="preserve">
<path d="M452,0H60C26.9,0,0,26.9,0,60v352c0,33.1,26.9,60,60,60h11v-40H60c-11,0-20-9-20-20V160h432v113h40V60
	C512,26.9,485.1,0,452,0z M40,120V60c0-11,9-20,20-20h392c11,0,20,9,20,20v60H40z M110,80c0,11-9,20-20,20s-20-9-20-20s9-20,20-20
	S110,69,110,80z M180,80c0,11-9,20-20,20s-20-9-20-20s9-20,20-20S180,69,180,80z M472,310h40v182h-40v-60h-40c-22.1,0-40-17.9-40-40
	v-82h40v82h40V310z M174,310h40v182h-40v-60h-40c-22.1,0-40-17.9-40-40v-82h40v82h40V310z M304.5,310c-33.4,0-60.5,27.1-60.5,60.5
	v61c0,33.4,27.1,60.5,60.5,60.5s60.5-27.1,60.5-60.5v-61C365,337.1,337.9,310,304.5,310z M325,431.5c0,11.3-9.2,20.5-20.5,20.5
	s-20.5-9.2-20.5-20.5v-61c0-11.3,9.2-20.5,20.5-20.5s20.5,9.2,20.5,20.5V431.5z"/>
</svg>
