<?xml version="1.0" encoding="utf-8"?>
<!-- Generator: Adobe Illustrator 21.0.0, SVG Export Plug-In . SVG Version: 6.00 Build 0)  -->
<svg version="1.1" id="Capa_1" xmlns="http://www.w3.org/2000/svg" xmlns:xlink="http://www.w3.org/1999/xlink" x="0px" y="0px"
	 viewBox="0 0 504 175.2" xml:space="preserve">
<polygon fill="#2FABF7" points="43.2,43.2 60.8,43.2 52,20.8 "/>
<path fill="#228FE0" d="M261.6,24c-1.6-0.8-4-0.8-6.4-0.8h-16V36h16c2.4,0,4.8,0,6.4-0.8s2.4-3.2,2.4-5.6
	C264.8,26.4,263.2,24.8,261.6,24z"/>
<path fill="#0571C1" d="M432.8,0v9.6L428,0h-37.6v9.6L385.6,0h-51.2c-8.8,0-16,1.6-22.4,4.8V0h-36v4.8c-4-3.2-8.8-4.8-15.2-4.8H132
	l-8.8,20l-8.8-20H73.6v9.6L68.8,0H34.4l-16,37.6L0,79.2h18.4h22.4l4.8-12.8h11.2l4.8,12.8H108v-9.6l4,9.6h23.2l4-9.6v9.6h111.2V58.4
	h1.6c1.6,0,1.6,0,1.6,2.4v17.6h57.6v-4.8c4.8,2.4,12,4.8,21.6,4.8h24l4.8-12.8h11.2l4.8,12.8H424v-12l7.2,12h37.6V0H432.8L432.8,0z
	 M162.4,67.2h-13.6v-44l-19.2,44h-12l-19.2-44v44H71.2l-5.6-12H38.4L33.6,68H18.4l24-56.8h20l22.4,53.6V11.2h21.6L124,49.6l16-38.4
	h22.4V67.2z M216.8,23.2h-31.2v10.4H216v11.2h-30.4V56h31.2v12H172V11.2h44.8V23.2z M276.8,46.4c1.6,3.2,2.4,5.6,2.4,10.4V68h-13.6
	v-7.2c0-3.2,0-8-2.4-11.2c-2.4-2.4-4.8-2.4-9.6-2.4h-14.4V68h-13.6V11.2H256c7.2,0,12,0,16,2.4s6.4,6.4,6.4,12.8
	c0,8.8-5.6,13.6-9.6,15.2C272.8,42.4,275.2,44.8,276.8,46.4z M300.8,67.2h-13.6V10.4h13.6V67.2z M458.4,67.2h-19.2l-25.6-42.4v42.4
	h-27.2l-4.8-12h-28L348.8,68h-15.2c-6.4,0-14.4-1.6-19.2-6.4c-4.8-4.8-7.2-11.2-7.2-21.6c0-8,1.6-16,7.2-22.4c4-4.8,11.2-6.4,20-6.4
	h12.8v12h-12.8c-4.8,0-7.2,0.8-10.4,3.2c-2.4,2.4-4,7.2-4,12.8c0,6.4,0.8,10.4,4,13.6c2.4,2.4,5.6,3.2,9.6,3.2h5.6l18.4-44h20
	L400,65.6V12h20l23.2,39.2V12h13.6v55.2L458.4,67.2L458.4,67.2z"/>
<g>
	<polygon fill="#228FE0" points="358.4,43.2 376.8,43.2 368,20.8 	"/>
	<polygon fill="#228FE0" points="222.4,158.4 222.4,112.8 201.6,135.2 	"/>
</g>
<polygon fill="#2FABF7" points="136.8,118.4 136.8,128.8 166.4,128.8 166.4,140 136.8,140 136.8,152 169.6,152 184.8,135.2
	170.4,118.4 "/>
<path id="SVGCleanerId_0" fill="#228FE0" d="M252.8,118.4H236v14.4h17.6c4.8,0,8-2.4,8-7.2C260.8,120.8,257.6,118.4,252.8,118.4z"/>
<path fill="#0571C1" d="M500,132V96h-9.6h-24c-7.2,0-12.8,1.6-16.8,4.8V96h-36.8c-5.6,0-12.8,1.6-16,4.8V96H332v4.8
	c-4.8-4-13.6-4.8-17.6-4.8h-43.2v4.8c-4-4-13.6-4.8-18.4-4.8h-48l-11.2,12l-10.4-12h-72v78.4h70.4l11.2-12l10.4,12h43.2V156h5.6
	c5.6,0,12.8,0,18.4-2.4v21.6h36v-20.8h1.6c2.4,0,2.4,0,2.4,2.4v18.4h108.8c7.2,0,14.4-1.6,18.4-4.8v4.8H472c7.2,0,14.4-0.8,19.2-4
	l0,0c8-4.8,12.8-13.6,12.8-24C504,141.6,502.4,136,500,132z M252,144.8h-16V164h-25.6l-16-18.4L177.6,164h-52.8v-56.8h53.6l16,18.4
	l16.8-18.4h42.4c10.4,0,22.4,3.2,22.4,18.4C275.2,141.6,264,144.8,252,144.8z M332,141.6c1.6,2.4,2.4,5.6,2.4,10.4v11.2h-13.6V156
	c0-3.2,0-8.8-2.4-11.2c-1.6-2.4-4.8-2.4-9.6-2.4h-14.4v20.8h-13.6v-56.8h30.4c6.4,0,12,0,16,2.4s7.2,6.4,7.2,12.8
	c0,8.8-5.6,13.6-9.6,15.2C328.8,138.4,331.2,140,332,141.6z M387.2,118.4H356v10.4h30.4V140H356v11.2h31.2v12h-44.8v-56.8h44.8
	V118.4z M420.8,163.2h-25.6v-12h25.6c2.4,0,4,0,5.6-1.6c0.8-0.8,1.6-2.4,1.6-4s-0.8-3.2-1.6-4c-0.8-0.8-2.4-1.6-4.8-1.6
	c-12.8-0.8-28,0-28-17.6c0-8,4.8-16.8,19.2-16.8h26.4v13.6h-24.8c-2.4,0-4,0-5.6,0.8s-1.6,2.4-1.6,4c0,2.4,1.6,3.2,3.2,4
	s3.2,0.8,4.8,0.8h7.2c7.2,0,12,1.6,15.2,4.8c2.4,2.4,4,6.4,4,12C441.6,157.6,434.4,163.2,420.8,163.2z M489.6,157.6
	c-3.2,3.2-8.8,5.6-16.8,5.6h-25.6v-12h25.6c2.4,0,4,0,5.6-1.6c0.8-0.8,1.6-2.4,1.6-4s-0.8-3.2-1.6-4c-0.8-0.8-2.4-1.6-4.8-1.6
	c-12.8-0.8-28,0-28-17.6c0-8,4.8-16.8,19.2-16.8h26.4v13.6h-24c-2.4,0-4,0-5.6,0.8s-1.6,2.4-1.6,4c0,2.4,0.8,3.2,3.2,4
	c1.6,0.8,3.2,0.8,4.8,0.8h7.2c7.2,0,12,1.6,15.2,4.8c0.8,0,0.8,0.8,0.8,0.8c2.4,3.2,3.2,7.2,3.2,11.2
	C494.4,150.4,492.8,154.4,489.6,157.6z"/>
<path id="SVGCleanerId_1" fill="#228FE0" d="M317.6,120c-1.6-0.8-4-0.8-6.4-0.8h-16V132h16c2.4,0,4.8,0,6.4-0.8s2.4-3.2,2.4-5.6
	C320.8,122.4,319.2,120.8,317.6,120z"/>
<g>
	<path fill="#228FE0" d="M261.6,24c-1.6-0.8-4-0.8-6.4-0.8h-16V36h16c2.4,0,4.8,0,6.4-0.8s2.4-3.2,2.4-5.6
		C264.8,26.4,263.2,24.8,261.6,24z"/>
	<polygon fill="#228FE0" points="358.4,43.2 376.8,43.2 368,20.8 	"/>
	<polygon fill="#228FE0" points="222.4,158.4 222.4,112.8 201.6,135.2 	"/>
</g>
<g>
	<path id="SVGCleanerId_0_1_" fill="#228FE0" d="M252.8,118.4H236v14.4h17.6c4.8,0,8-2.4,8-7.2C260.8,120.8,257.6,118.4,252.8,118.4z"
		/>
</g>
<g>
	<path id="SVGCleanerId_1_1_" fill="#228FE0" d="M317.6,120c-1.6-0.8-4-0.8-6.4-0.8h-16V132h16c2.4,0,4.8,0,6.4-0.8s2.4-3.2,2.4-5.6
		C320.8,122.4,319.2,120.8,317.6,120z"/>
</g>
<g>
	<polygon fill="#2FABF7" points="247.2,161.6 236,149.6 236,163.2 209.6,163.2 193.6,144.8 176,163.2 123.2,163.2 123.2,107.2
		176.8,107.2 193.6,125.6 201.6,116 181.6,96 111.2,96 111.2,174.4 181.6,174.4 193.6,162.4 204,174.4 247.2,174.4 	"/>
	<polygon fill="#2FABF7" points="164,78.4 153.6,67.2 148.8,67.2 148.8,62.4 136.8,50.4 128.8,67.2 117.6,67.2 98.4,23.2 98.4,67.2
		71.2,67.2 65.6,55.2 38.4,55.2 32.8,67.2 18.4,67.2 42.4,11.2 62.4,11.2 84.8,64.8 84.8,11.2 96.8,11.2 85.6,0 73.6,0 73.6,9.6
		69.6,0 34.4,0 18.4,37.6 0,78.4 18.4,78.4 41.6,78.4 46.4,66.4 57.6,66.4 63.2,78.4 108,78.4 108,68.8 112,78.4 135.2,78.4
		139.2,68.8 139.2,78.4 	"/>
	<polygon fill="#2FABF7" points="127.2,41.6 114.4,28.8 124,49.6 	"/>
</g>
<g>
	<path fill="#228FE0" d="M491.2,170.4c7.2-4.8,12-12.8,12.8-21.6l-11.2-11.2c0.8,2.4,1.6,4.8,1.6,8c0,4.8-1.6,8.8-4.8,12
		c-3.2,3.2-8.8,5.6-16.8,5.6h-25.6v-12h25.6c2.4,0,4,0,5.6-1.6c0.8-0.8,1.6-2.4,1.6-4s-0.8-3.2-1.6-4c-0.8-0.8-2.4-1.6-4.8-1.6
		c-12.8-0.8-28,0-28-17.6c0-8,4.8-15.2,16.8-16.8l-8.8-8.8c-1.6,0.8-2.4,1.6-3.2,1.6v-4.8h-36.8c-5.6,0-12.8,1.6-16,4.8v-4.8H332
		v4.8c-4.8-4-13.6-4.8-17.6-4.8h-43.2v4.8c-4-4-13.6-4.8-18.4-4.8h-48l-11.2,12l-10.4-12h-8.8l24,24l12-12.8h42.4
		c10.4,0,22.4,3.2,22.4,18.4c0,16-11.2,19.2-23.2,19.2h-16v12l12,12v-12h4c5.6,0,12.8,0,18.4-2.4v21.6h36v-20.8h1.6
		c2.4,0,2.4,0,2.4,2.4v18.4h108.8c7.2,0,14.4-1.6,18.4-4.8v4.8H472C478.4,174.4,485.6,173.6,491.2,170.4L491.2,170.4z M332,141.6
		c1.6,2.4,2.4,5.6,2.4,10.4v11.2h-13.6V156c0-3.2,0-8.8-2.4-11.2c-1.6-2.4-4.8-2.4-9.6-2.4h-14.4v20.8h-13.6v-56.8h30.4
		c6.4,0,12,0,16,2.4s7.2,6.4,7.2,12.8c0,8.8-5.6,13.6-9.6,15.2C328.8,138.4,331.2,140,332,141.6z M387.2,118.4H356v10.4h30.4V140
		H356v11.2h31.2v12h-44.8v-56.8h44.8V118.4z M420.8,163.2h-25.6v-12h25.6c2.4,0,4,0,5.6-1.6c0.8-0.8,1.6-2.4,1.6-4s-0.8-3.2-1.6-4
		c-0.8-0.8-2.4-1.6-4.8-1.6c-12.8-0.8-28,0-28-17.6c0-8,4.8-16.8,19.2-16.8h26.4v13.6h-24.8c-2.4,0-4,0-5.6,0.8s-1.6,2.4-1.6,4
		c0,2.4,1.6,3.2,3.2,4s3.2,0.8,4.8,0.8h7.2c7.2,0,12,1.6,15.2,4.8c2.4,2.4,4,6.4,4,12C441.6,157.6,434.4,163.2,420.8,163.2z"/>
	<path fill="#228FE0" d="M459.2,124c0,2.4,0.8,3.2,3.2,4c1.6,0.8,3.2,0.8,4.8,0.8h7.2c4.8,0,8,0.8,11.2,2.4l-12-12h-7.2
		c-2.4,0-4,0-5.6,0.8C460,120.8,459.2,122.4,459.2,124z"/>
	<polygon fill="#228FE0" points="431.2,76 432.8,78.4 433.6,78.4 	"/>
	<polygon fill="#228FE0" points="387.2,32 400.8,64.8 400.8,45.6 	"/>
	<path fill="#228FE0" d="M250.4,58.4h1.6c1.6,0,1.6,0,1.6,2.4v17.6h57.6v-4.8c4.8,2.4,12,4.8,21.6,4.8h24l4.8-12.8h11.2l4.8,12.8H424
		v-8l-11.2-11.2V68h-27.2l-4-12.8h-28L348.8,68h-15.2c-6.4,0-14.4-1.6-19.2-6.4c-4.8-4.8-7.2-11.2-7.2-21.6c0-8,1.6-16,7.2-22.4
		c4-4.8,11.2-6.4,20-6.4h12.8v12h-12.8c-4.8,0-7.2,0.8-10.4,3.2c-2.4,2.4-4,7.2-4,12.8c0,6.4,0.8,10.4,4,13.6
		c2.4,2.4,5.6,3.2,9.6,3.2h5.6l18.4-44h8L354.4,0.8h-20.8c-8.8,0-16,1.6-22.4,4.8V0.8H276v4.8c-4-3.2-8.8-4.8-15.2-4.8H132l-8.8,20
		l-8.8-20H79.2L90.4,12h16L120,41.6l4.8,4.8l14.4-35.2h22.4V68H148V24l-13.6,32l23.2,23.2h92L250.4,58.4z M287.2,11.2h13.6V68h-13.6
		V11.2z M216.8,23.2h-31.2v10.4H216v11.2h-30.4V56h31.2v12H172V11.2h44.8V23.2z M239.2,67.2h-13.6V10.4H256c7.2,0,12,0,16,2.4
		s6.4,6.4,6.4,12.8c0,8.8-5.6,13.6-9.6,15.2c3.2,0.8,5.6,3.2,6.4,4.8c1.6,3.2,2.4,5.6,2.4,10.4v11.2H264V60c0-3.2,0-8-2.4-11.2
		c-0.8-1.6-3.2-1.6-8-1.6h-14.4L239.2,67.2L239.2,67.2z"/>
</g>
</svg>
