<?xml version="1.0" encoding="utf-8"?>
<!-- Generator: Adobe Illustrator 21.0.0, SVG Export Plug-In . SVG Version: 6.00 Build 0)  -->
<svg version="1.1" id="US_UK_Download_on_the" xmlns="http://www.w3.org/2000/svg" xmlns:xlink="http://www.w3.org/1999/xlink"
	 x="0px" y="0px" viewBox="0 0 135 40" style="enable-background:new 0 0 135 40;" xml:space="preserve">
<path d="M81.3,12.9l0.1,0.5h0.9c0-0.2,0-0.6-0.1-1.2v-1.7c0-1.3-0.7-1.9-1.9-1.9c-0.6,0-1.2,0.1-1.6,0.4l0.2,0.7
	c0.3-0.2,0.7-0.3,1.2-0.3c0.7,0,1,0.3,1,0.9v0.1c-0.8-0.1-1.5,0.1-2,0.4c-0.5,0.3-0.7,0.7-0.7,1.3c0,0.4,0.2,0.7,0.4,1
	c0.3,0.3,0.7,0.4,1.1,0.4C80.5,13.5,81,13.3,81.3,12.9z M79.7,12.6c-0.1-0.2-0.2-0.4-0.2-0.6c0-0.6,0.5-0.9,1.7-0.9v0.7
	c0,0.1,0,0.1,0,0.2c-0.1,0.3-0.2,0.5-0.4,0.6c-0.2,0.1-0.4,0.2-0.6,0.2S79.8,12.8,79.7,12.6z M66.2,9.5c-0.3,0-0.6,0.1-0.8,0.3
	c-0.2,0.2-0.3,0.5-0.3,0.8v2.8h-1V10c0-0.4,0-0.9,0-1.3H65v0.7c0.1-0.2,0.3-0.4,0.5-0.6c0.3-0.2,0.6-0.3,0.9-0.3
	c0.4,0,0.8,0.1,1.1,0.4c0.4,0.3,0.5,0.9,0.5,1.6v2.9h-0.8v-2.7C67.2,9.9,66.9,9.5,66.2,9.5z M75,8.6c-0.7,0-1.3,0.2-1.7,0.7
	s-0.6,1.1-0.6,1.8c0,0.7,0.2,1.2,0.6,1.7c0.5,0.5,1,0.7,1.7,0.7s1.3-0.2,1.7-0.7c0.4-0.5,0.6-1.1,0.6-1.8s-0.2-1.2-0.6-1.7
	C76.2,8.8,75.7,8.6,75,8.6z M75.9,12.2c-0.2,0.4-0.5,0.6-0.9,0.6c-0.5,0-0.8-0.2-1-0.6c-0.2-0.3-0.3-0.7-0.3-1.1
	c0-0.4,0.1-0.8,0.3-1.1c0.3-0.4,0.6-0.6,1-0.6s0.7,0.2,0.9,0.6c0.2,0.3,0.3,0.7,0.3,1.1C76.2,11.5,76.1,11.9,75.9,12.2z M71.8,21.8
	c-1.4,0-2.5,0.6-3.2,1.7L68.5,22h-1.9c0.1,1.1,0.1,2.2,0.1,3.2v10.3h2.1v-5.1c0.5,0.9,1.4,1.4,2.7,1.4c1.1,0,2.1-0.5,2.9-1.3
	c0.9-1,1.3-2.3,1.3-3.9c0-1.5-0.4-2.7-1.1-3.5C73.9,22.2,72.9,21.8,71.8,21.8z M72.9,29.2c-0.5,0.6-1.1,0.9-1.9,0.9
	c-0.7,0-1.3-0.2-1.7-0.7c-0.4-0.5-0.6-1.1-0.6-1.8V26c0-0.1,0-0.3,0.1-0.6c0.1-0.6,0.4-1,0.8-1.4c0.4-0.3,0.9-0.5,1.4-0.5
	c0.8,0,1.4,0.3,1.9,0.9c0.4,0.6,0.6,1.4,0.6,2.3C73.5,27.7,73.3,28.5,72.9,29.2z M88.3,12V6.4h-1v2.7c-0.2-0.4-0.7-0.6-1.3-0.6
	s-1.1,0.3-1.5,0.7c-0.4,0.5-0.6,1.1-0.6,1.9c0,0.7,0.2,1.2,0.6,1.7s0.8,0.7,1.4,0.7c0.7,0,1.2-0.3,1.5-0.9v0.8h0.9
	C88.3,13,88.2,12.6,88.3,12z M87.2,10.6v0.8c0,0.4-0.1,0.7-0.3,0.9c-0.2,0.3-0.5,0.4-0.8,0.4c-0.4,0-0.7-0.2-0.9-0.5
	c-0.2-0.3-0.3-0.6-0.3-1.1s0.1-0.9,0.3-1.2c0.2-0.3,0.5-0.5,0.9-0.5c0.3,0,0.5,0.1,0.7,0.3c0.2,0.1,0.3,0.3,0.4,0.6
	C87.2,10.4,87.2,10.5,87.2,10.6z M87.3,25.6c0.5,0.5,0.7,1.3,0.7,2.2c0,1.1-0.4,2.1-1.2,2.8c-0.9,0.8-2.1,1.2-3.6,1.2
	c-1.4,0-2.6-0.3-3.4-0.8l0.5-1.8c0.9,0.6,2,0.9,3.1,0.9c0.8,0,1.4-0.2,1.9-0.5c0.4-0.4,0.7-0.8,0.7-1.5c0-0.5-0.2-1-0.6-1.4
	c-0.4-0.4-1-0.7-1.8-1c-2.3-0.9-3.5-2.1-3.5-3.8c0-1.1,0.4-2,1.2-2.7s1.9-1,3.3-1c1.2,0,2.2,0.2,3,0.6l-0.5,1.7
	c-0.8-0.4-1.6-0.6-2.5-0.6c-0.8,0-1.3,0.2-1.8,0.6c-0.4,0.3-0.5,0.7-0.5,1.2s0.2,1,0.6,1.3c0.4,0.3,1,0.7,1.9,1
	C85.9,24.5,86.8,25,87.3,25.6z M113.6,9.4c-0.5,0-0.8,0.2-1,0.7c0,0.1,0,0.2,0,0.4v2.8h-1V6.4h1v2.8c0.3-0.5,0.8-0.8,1.4-0.8
	c0.4,0,0.8,0.1,1.1,0.4c0.4,0.4,0.5,0.9,0.5,1.6c-0.1,0.2-0.1,3-0.1,3h-1v-2.7C114.5,9.9,114.2,9.4,113.6,9.4z M112.2,21.7
	c0.2,0,0.4,0,0.5,0c-0.1,0.1-0.1,2.1-0.1,2.1c-0.2,0-0.4-0.1-0.7-0.1c-0.8,0-1.3,0.3-1.7,0.9c-0.4,0.5-0.5,1.1-0.5,1.9v5h-2.1v-6.6
	c0-1.1,0-2.1-0.1-3h1.9l0.1,1.8h0.1c0.2-0.6,0.6-1.1,1.1-1.5C111.2,21.9,111.7,21.7,112.2,21.7z M118.2,21.9c-1.5,0-2.6,0.5-3.4,1.5
	c-0.8,0.9-1.2,2.2-1.2,3.6c0,1.4,0.5,2.6,1.3,3.5c0.8,0.9,2,1.3,3.5,1.3c1.2,0,2.3-0.2,3.2-0.6l-0.3-1.5c-0.8,0.3-1.7,0.5-2.6,0.5
	c-0.9,0-1.6-0.3-2.1-0.7c-0.6-0.5-0.9-1.3-0.9-2.2h6.4c0.1-0.3,0.1-0.6,0.1-1c0-1.2-0.3-2.3-0.9-2.9
	C120.6,22.4,119.6,21.9,118.2,21.9z M115.7,25.8c0-0.7,0.2-1.2,0.6-1.7c0.4-0.6,1-0.9,1.7-0.9c0.8,0,1.3,0.3,1.7,0.9
	c0.3,0.4,0.4,1,0.4,1.6L115.7,25.8z M107.7,9.5H107V8.7h0.7V7.8l1-0.3v1.2h1.2v0.8h-1.2v2.3c0,0.6,0.2,0.9,0.6,0.9
	c0.2,0,0.3,0,0.5,0v0.8c-0.2,0.1-0.5,0.1-0.8,0.1c-0.4,0-0.7-0.1-1-0.4c-0.2-0.3-0.3-0.7-0.3-1.3V9.5z M101,21.7
	c-1.5,0-2.6,0.5-3.5,1.4c-0.9,1-1.3,2.2-1.3,3.7c0,1.4,0.5,2.6,1.3,3.5c0.9,0.9,2,1.4,3.4,1.4s2.6-0.5,3.5-1.5
	c0.9-0.9,1.3-2.1,1.3-3.6c0-1.4-0.4-2.6-1.3-3.5C103.5,22.2,102.4,21.7,101,21.7z M102.8,28.9c-0.4,0.8-1.1,1.2-1.9,1.2
	c-0.8,0-1.4-0.3-1.9-1.1c-0.4-0.7-0.6-1.4-0.6-2.3c0-0.9,0.2-1.7,0.6-2.3c0.5-0.7,1.1-1.1,2-1.1c0.8,0,1.5,0.3,1.9,1.1
	c0.4,0.7,0.6,1.4,0.6,2.3S103.3,28.3,102.8,28.9z M92.7,23.5v4.7c0,1.2,0.4,1.8,1.2,1.8c0.4,0,0.7,0,0.9-0.1l0.1,1.6
	c-0.4,0.2-1,0.2-1.7,0.2c-0.8,0-1.5-0.3-2-0.8s-0.7-1.4-0.7-2.6v-4.8h-1.4v-1.6h1.4v-1.8l2.1-0.6v2.4h2.3c0.2,0,0.2,1.6,0.2,1.6
	H92.7z M33.6,25.1c0,0.1-0.5,1.8-1.8,3.6c-1.1,1.5-2.2,3.1-3.9,3.1s-2.3-1-4.2-1c-2,0-2.6,0.9-4.2,1c-1.6,0.1-2.9-1.6-4-3.2
	c-2.2-3.2-3.9-9-1.6-12.9c1.1-1.9,3.1-3.2,5.2-3.2c1.6-0.1,3.2,1.1,4.2,1.1s2.9-1.4,4.9-1.2c0.8,0,3.2,0.3,4.7,2.5
	c-0.2,0.1-2.8,1.7-2.8,4.9C30.2,23.6,33.5,24.9,33.6,25.1z M71.1,13.4h-1V6.5h1V13.4z M94.9,13.5c0.7,0,1.3-0.2,1.7-0.7
	c0.4-0.5,0.6-1.1,0.6-1.8S97,9.8,96.6,9.3c-0.5-0.5-1-0.7-1.7-0.7s-1.3,0.2-1.7,0.7s-0.6,1.1-0.6,1.8c0,0.7,0.2,1.2,0.6,1.7
	C93.7,13.3,94.2,13.5,94.9,13.5z M94,10c0.3-0.4,0.6-0.6,1-0.6s0.7,0.2,0.9,0.6c0.2,0.3,0.3,0.7,0.3,1.1c0,0.4-0.1,0.8-0.3,1.1
	c-0.2,0.4-0.5,0.6-0.9,0.6c-0.5,0-0.8-0.2-1-0.6c-0.2-0.3-0.3-0.7-0.3-1.1C93.7,10.7,93.8,10.3,94,10z M99.8,13.4h-1V10
	c0-0.4,0-0.9,0-1.3h0.9v0.7c0.1-0.2,0.3-0.4,0.5-0.6c0.3-0.2,0.6-0.3,1-0.3s0.8,0.1,1.1,0.4c0.4,0.3,0.5,0.9,0.5,1.6v2.9h-0.9v-2.7
	c0-0.8-0.3-1.2-1-1.2c-0.3,0-0.6,0.1-0.8,0.3c-0.2,0.2-0.3,0.5-0.3,0.8V13.4z M119.5,13.6c0.6,0,1.2-0.1,1.6-0.3l-0.2-0.7
	c-0.4,0.1-0.8,0.2-1.3,0.2c-0.4,0-0.7-0.1-1-0.3c-0.3-0.3-0.5-0.6-0.5-1.1h3.1c0-0.2,0-0.3,0-0.5c0-0.6-0.1-1.1-0.3-1.4
	c-0.3-0.5-0.8-0.8-1.5-0.8c-0.6,0-1.2,0.3-1.6,0.8c-0.4,0.5-0.6,1.1-0.6,1.8c0,0.7,0.2,1.3,0.6,1.7
	C118.2,13.4,118.8,13.6,119.5,13.6z M118.4,9.8c0.2-0.3,0.5-0.4,0.8-0.4s0.6,0.1,0.8,0.4c0.1,0.2,0.2,0.5,0.2,0.8c0,0-2.2,0-2.1,0
	C118.1,10.3,118.2,10,118.4,9.8z M57.3,13.4l-1.4-4.7H57l0.5,2.2c0.1,0.5,0.2,1,0.3,1.5c0.1-0.4,0.2-0.9,0.4-1.5l0.7-2.3h0.9
	l0.6,2.2c0.2,0.5,0.3,1.1,0.4,1.6c0.1-0.5,0.2-1,0.3-1.6l0.6-2.2l1.1,0.1l-1.5,4.7h-1l-0.6-2c-0.2-0.5-0.3-1-0.4-1.5
	c-0.1,0.5-0.2,1-0.4,1.5l-0.6,2H57.3z M60.8,21.8c-1.4,0-2.5,0.6-3.2,1.7L57.5,22h-1.9c0.1,1.1,0.1,2.2,0.1,3.2v10.3h2.1v-5.1
	c0.5,0.9,1.4,1.4,2.7,1.4c1.1,0,2.1-0.5,2.9-1.3c0.9-1,1.3-2.3,1.3-3.9c0-1.5-0.4-2.7-1.1-3.5C62.9,22.2,61.9,21.8,60.8,21.8z
	 M61.9,29.2c-0.5,0.6-1.1,0.9-1.9,0.9c-0.7,0-1.3-0.2-1.7-0.7c-0.4-0.5-0.6-1.1-0.6-1.8V26c0-0.1,0-0.3,0.1-0.6
	c0.1-0.6,0.4-1,0.8-1.4c0.4-0.3,0.9-0.5,1.4-0.5c0.8,0,1.4,0.3,1.9,0.9c0.4,0.6,0.6,1.4,0.6,2.3C62.5,27.7,62.3,28.5,61.9,29.2z
	 M52.6,8.6c-0.7,0-1.3,0.2-1.7,0.7s-0.6,1.1-0.6,1.8c0,0.7,0.2,1.2,0.6,1.7c0.5,0.5,1,0.7,1.7,0.7s1.3-0.2,1.7-0.7
	c0.4-0.5,0.6-1.1,0.6-1.8s-0.2-1.2-0.6-1.7C53.8,8.8,53.3,8.6,52.6,8.6z M53.5,12.2c-0.2,0.4-0.5,0.6-0.9,0.6c-0.5,0-0.8-0.2-1-0.6
	c-0.2-0.3-0.3-0.7-0.3-1.1c0-0.4,0.1-0.8,0.3-1.1c0.3-0.4,0.6-0.6,1-0.6s0.7,0.2,0.9,0.6c0.2,0.3,0.3,0.7,0.3,1.1
	C53.8,11.5,53.7,11.9,53.5,12.2z M46.7,18.2l-4.3,13.3h2.2l1.2-3.9h4.3l1.2,3.9h2.3l-4.3-13.3H46.7z M46.3,26l1.1-3.5
	c0.3-1.1,0.5-1.9,0.6-2.5c0.4,1.3,0.6,2.1,0.7,2.5l1.1,3.5H46.3z M47.9,12.7c0.7-0.6,1.1-1.5,1.1-2.7c0-1-0.3-1.8-1-2.4
	c-0.6-0.5-1.5-0.7-2.6-0.7c-0.6,0-1.2,0-1.8,0.1v6.4c0.4,0.1,0.9,0.1,1.5,0.1C46.3,13.5,47.2,13.2,47.9,12.7z M44.7,7.7
	c0.2-0.1,0.5-0.1,0.8-0.1c0.8,0,1.4,0.2,1.8,0.6c0.4,0.5,0.6,1,0.6,1.8c0,0.9-0.2,1.5-0.6,1.9c-0.5,0.5-1.1,0.7-1.9,0.7
	c-0.3,0-0.6,0-0.7,0V7.7z M23.1,12c-0.2-1.4,0.5-3,1.3-3.9c1-1,2.5-1.8,3.8-1.9c0.2,1.5-0.4,3-1.3,4.1C26,11.4,24.6,12.2,23.1,12z"
	/>
<path fill="#A6A6A6" d="M130,0H5C2.2,0,0,2.3,0,5v30c0,2.8,2.3,5,5,5h125c2.8,0,5-2.3,5-5V5C135,2.3,132.8,0,130,0z M134.2,35
	c0,2.3-1.9,4.2-4.2,4.2H5c-2.3,0-4.2-1.9-4.2-4.2V5c0-2.3,1.9-4.2,4.2-4.2h125c2.3,0,4.2,1.9,4.2,4.2V35z"/>
</svg>
