<?xml version="1.0" encoding="utf-8"?>
<!-- Generator: Adobe Illustrator 21.0.0, SVG Export Plug-In . SVG Version: 6.00 Build 0)  -->
<svg version="1.1" id="Capa_1" xmlns="http://www.w3.org/2000/svg" xmlns:xlink="http://www.w3.org/1999/xlink" x="0px" y="0px"
	 viewBox="0 0 13.2 13.1" xml:space="preserve">
<g>
	<g id="bag" class="st0">
		<path id="Path_62" d="M13.2,12.4l-1.6-9.5c0-0.3-0.3-0.5-0.5-0.5H9.2C8.7,1.3,7.8,0,6.6,0S4.6,1.3,4,2.5H2.2
			c-0.3,0-0.5,0.2-0.5,0.5L0,12.5c-0.1,0.3,0.1,0.5,0.3,0.6c0.1,0,0.1,0,0.2,0h12.1C13,13.1,13.3,12.8,13.2,12.4
			C13.2,12.5,13.2,12.4,13.2,12.4z M6.6,1.1c0.5,0,1,0.6,1.4,1.4H5.2C5.6,1.7,6.1,1.1,6.6,1.1L6.6,1.1z M1.2,12l1.4-8.5h1
			C3.6,3.9,3.5,4.2,3.5,4.5C3.5,4.8,3.7,5,4,5c0.3,0,0.5-0.2,0.5-0.5c0-0.3,0.1-0.6,0.2-0.9h3.7c0.1,0.3,0.2,0.6,0.2,0.9
			C8.7,4.8,8.9,5,9.2,5c0.3,0,0.5-0.2,0.5-0.5c0-0.3-0.1-0.6-0.2-0.9h1L12,12H1.2z"/>
	</g>
</g>
</svg>
