<?xml version="1.0" encoding="iso-8859-1"?>
<!-- Generator: Adobe Illustrator 21.0.0, SVG Export Plug-In . SVG Version: 6.00 Build 0)  -->
<svg xmlns="http://www.w3.org/2000/svg" xmlns:xlink="http://www.w3.org/1999/xlink" version="1.1" id="Capa_1" x="0px" y="0px" viewBox="0 0 512 512" style="enable-background:new 0 0 512 512;" xml:space="preserve" width="512" height="512">
<g>
	<path d="M502.935,304.799L188.401,168.9c-5.402-2.401-12.001-1.201-16.501,2.999c-4.199,4.501-5.4,10.8-2.999,16.5L304.799,503   c2.401,5.4,7.8,9,13.801,9h1.5c6.301-0.601,11.7-5.4,13.2-11.7l31.5-135.5l135.435-31.5c6.301-1.5,11.1-6.899,11.7-13.2   C512.536,313.5,508.936,307.5,502.935,304.799z"/>
	<path d="M195,120c32.234,0,59.504,20.475,70.104,49.034l33.726,14.399C292.983,131.027,248.939,90,195,90   c-57.746,0-105,47.161-105,105c0,53.936,41.023,97.982,93.424,103.83l-14.401-33.73C140.469,254.497,120,227.228,120,195   C120,153.431,153.427,120,195,120z"/>
	<path d="M195,360c-90.901,0-165-74.101-165-165c0-91.059,74.042-165,165-165c90.901,0,165,74.099,165,165   c0,4.786-0.377,9.505-0.784,14.218l28.79,12.292C389.194,212.78,390,203.969,390,195C390,87.6,302.401,0,195,0   C87.637,0,0,87.595,0,195c0,107.399,87.599,195,195,195c8.967,0,17.778-0.8,26.499-1.996l-12.288-28.779   C204.505,359.619,199.796,360,195,360z"/>
</g>















</svg>
