<?xml version="1.0" encoding="utf-8"?>
<!-- Generator: Adobe Illustrator 21.0.0, SVG Export Plug-In . SVG Version: 6.00 Build 0)  -->
<svg version="1.1" id="Шар_1" xmlns="http://www.w3.org/2000/svg" xmlns:xlink="http://www.w3.org/1999/xlink" x="0px" y="0px"
	 viewBox="0 0 18 3" xml:space="preserve">
<path d="M3,1.5C3,2.3,2.3,3,1.5,3S0,2.3,0,1.5S0.7,0,1.5,0S3,0.7,3,1.5z M9,0C8.2,0,7.5,0.7,7.5,1.5S8.2,3,9,3s1.5-0.7,1.5-1.5
	S9.8,0,9,0z M16.5,0C15.7,0,15,0.7,15,1.5S15.7,3,16.5,3S18,2.3,18,1.5S17.3,0,16.5,0z"/>
</svg>
