<?xml version="1.0" encoding="utf-8"?>
<!-- Generator: Adobe Illustrator 21.0.0, SVG Export Plug-In . SVG Version: 6.00 Build 0)  -->
<svg version="1.1" id="Шар_1" xmlns="http://www.w3.org/2000/svg" xmlns:xlink="http://www.w3.org/1999/xlink" x="0px" y="0px"
	 viewBox="0 0 25 13.8" style="enable-background: new 0 0 25 13.8;" xml:space="preserve">
<path id="Path_58" d="M24,6.1H1C0.6,6,0.1,6.3,0,6.7c-0.1,0.4,0.2,0.9,0.6,1c0.1,0,0.2,0,0.4,0h23c0.4,0.1,0.9-0.2,1-0.6
	c0.1-0.4-0.2-0.9-0.6-1C24.2,6.1,24.1,6.1,24,6.1z"/>
<path id="Path_59" d="M24,0H1C0.6-0.1,0.1,0.2,0,0.6s0.2,0.9,0.6,1c0.1,0,0.2,0,0.4,0h23c0.4,0.1,0.9-0.2,1-0.6
	c0.1-0.4-0.2-0.9-0.6-1C24.2,0,24.1,0,24,0z"/>
<path id="Path_60" d="M24,12.2H1c-0.4-0.1-0.9,0.2-1,0.6c-0.1,0.4,0.2,0.9,0.6,1c0.1,0,0.2,0,0.4,0h23c0.4,0.1,0.9-0.2,1-0.6
	c0.1-0.4-0.2-0.9-0.6-1C24.2,12.2,24.1,12.2,24,12.2z"/>
</svg>
