<?xml version="1.0" encoding="utf-8"?>
<!-- Generator: Adobe Illustrator 23.0.6, SVG Export Plug-In . SVG Version: 6.00 Build 0)  -->
<svg version="1.1" id="Layer_1" xmlns="http://www.w3.org/2000/svg" xmlns:xlink="http://www.w3.org/1999/xlink" x="0px" y="0px"
	 viewBox="0 0 200 200" style="enable-background:new 0 0 200 200;" xml:space="preserve">
<g>
	<g id="zyf2HU.tif">
		<g>
			<path fill="#404042" d="M74.4,101.1c0-5.3,0-10.6,0-15.9c0-1.2,1.2-2.5,2.5-2.2c0.9,0.1,1.7,0.9,1.8,1.8c0,0.3,0.1,0.6,0.1,0.9
				c0,2.9,0,5.8,0,8.7c0,0.7,0.9,1.4,1.6,1c0.6-0.4,1.3-0.7,2-1c6-2.5,12.1-0.3,15.4,4c3.2,4.2,4,10.7,0,15.9
				c-2.2,2.9-5.2,4.5-8.8,5c-3,0.4-5.8-0.3-8.4-1.9c-0.9-0.6-1.6-0.2-1.9,0.6c-0.2,0.4-0.4,0.7-0.7,0.9c-0.7,0.5-1.4,0.7-2.2,0.3
				c-0.8-0.4-1.3-1-1.3-1.9c0-1.2,0-2.4,0-3.6C74.4,109.4,74.4,105.2,74.4,101.1z M87.4,114.9c4.6,0.1,8.6-4,8.6-8.6
				c0-4.6-3.8-8.7-8.8-8.7c-4.1,0-8.5,3.5-8.5,8.7C78.8,111.1,82.7,114.9,87.4,114.9z"/>
			<path fill="#404042" d="M7,109.5c0-2.1,0-4.1,0-6.2c0-1.5,0.3-2.8,0.9-4.1c1.1-2.3,2.8-4,5.2-5c3.6-1.5,7-1,10.1,1.2
				c0.4,0.2,0.7,0.6,1,0.8c0.6,0.4,0.9,0.4,1.5,0c0.6-0.4,1.1-1,1.8-1.3c2.6-1.6,5.4-1.9,8.3-1.1c2.5,0.7,4.4,2.3,5.8,4.5
				c0.7,1.2,1.2,2.5,1.3,3.9c0,0.2,0,0.3,0,0.5c0,4.6,0,9.2,0,13.8c0,0.3,0,0.5-0.1,0.8c-0.1,1-1.2,1.8-2.1,1.8
				c-1,0-1.9-0.8-2.1-1.8c0-0.3-0.1-0.6-0.1-0.9c0-4.5,0-9,0-13.4c0-0.5-0.1-1-0.3-1.4c-0.9-2.1-2.5-3.4-4.8-3.7
				c-2.2-0.3-4.5,0.9-5.6,2.8c-0.2,0.3-0.4,0.6-0.5,1c-0.1,0.4-0.2,0.8-0.2,1.2c0,4.5,0,9.1,0,13.6c0,0.5-0.1,0.9-0.2,1.4
				c-0.3,0.8-1.1,1.4-2,1.4c-0.9,0-1.7-0.6-2-1.4c-0.1-0.4-0.2-0.9-0.2-1.4c0-4.5,0-9,0-13.5c0-0.5-0.1-0.9-0.3-1.3
				c-1-2.3-2.7-3.6-5.3-3.7c-3.3-0.1-5.4,2.4-5.8,4.5c0,0.2-0.1,0.4-0.1,0.7c0,4.5,0,8.9,0,13.4c0,0.2,0,0.5,0,0.7
				c-0.1,1-0.8,1.8-1.7,2c-1.1,0.2-2.3-0.6-2.5-1.7c-0.1-0.3-0.1-0.6-0.1-1C7,114,7,111.7,7,109.5z"/>
			<path fill="#404042" d="M45.6,106.3c0-7.1,5.9-13.1,13.2-13c6.8,0.1,12.9,5.6,12.9,13.1c0,6.9-5.7,13-13.4,12.9
				C51.6,119.2,45.6,113.6,45.6,106.3z M50,106.1c-0.2,4.7,3.7,8.6,8.2,8.8c5,0.2,8.9-3.8,9-8.3c0.2-4.9-3.7-8.9-8.4-9
				C54.1,97.6,50.1,101.4,50,106.1z"/>
			<path fill="#404042" d="M107.4,106.3c0,3.6,0,7.2,0,10.7c0,1.3-1.3,2.5-2.7,2.2c-0.7-0.1-1.6-0.9-1.7-2.1c0-0.2,0-0.5,0-0.7
				c0-6.8,0-13.6,0-20.4c0-0.5,0-0.9,0.2-1.4c0.4-1.3,2-1.8,3.1-1.2c0.7,0.4,1.1,1.1,1.1,1.9C107.4,99.1,107.4,102.7,107.4,106.3z"
				/>
			<path fill="#404042" d="M16,80.7c4.4,0,8.2,1.4,11.6,3.8c0.8,0.6,1,1.6,0.4,2.4c-0.6,0.7-1.6,0.9-2.4,0.3c-2.1-1.5-4.4-2.6-7-3
				c-4.3-0.7-8.3,0.3-11.8,3c-1.5,1.1-2.7,2.5-3.8,4.1c-0.4,0.6-1,0.9-1.7,0.8c-1.2-0.2-1.8-1.5-1.1-2.6c0.9-1.3,1.9-2.5,3-3.6
				c3.2-3,6.9-4.7,11.3-5.1C15.1,80.7,15.7,80.7,16,80.7z"/>
			<path fill="#404042" d="M16.7,86.9c3.4,0,6.4,1.1,9.1,3.1c0.8,0.6,0.9,1.6,0.4,2.3c-0.5,0.7-1.6,0.9-2.3,0.4c-1.2-0.9-2.6-1.6-4.1-2
				c-4.9-1.4-10.1,0.6-12.9,4.9c-0.4,0.6-0.9,1-1.6,0.9c-0.6,0-1.1-0.3-1.4-0.9c-0.3-0.6-0.3-1.2,0.1-1.7c1.1-1.7,2.4-3.1,4-4.3
				C10.6,87.8,13.5,86.9,16.7,86.9z"/>
			<path fill="#404042" d="M102.5,87.3c0-1.5,1.2-2.7,2.8-2.7c1.5,0,2.6,1.2,2.7,2.8c0,1.5-1.4,2.7-2.7,2.7
				C103.6,90,102.5,88.8,102.5,87.3z"/>
		</g>
	</g>
	<path fill="#1F9CA1" d="M197.8,82.8c-1.2,0-2.2,1-2.2,2.2v9.3c0,0.9-1,1.4-1.7,0.9c-2-1.3-4.4-2-7-2c-7.2,0-13.1,5.8-13.1,13
		c0,7.2,5.8,13,13,13c2.6,0,5.1-0.8,7.1-2.1c0,0,0,0,0,0c1-0.6,1.5,0.2,1.9,1l0,0c0.4,0.6,1.1,1.1,1.9,1.1c1.2,0,2.2-1,2.2-2.2V85
		C200,83.8,199,82.8,197.8,82.8z M187,114.9c-4.8,0-8.7-3.9-8.7-8.7c0-4.8,3.9-8.7,8.7-8.7s8.7,3.9,8.7,8.7
		C195.6,111.1,191.7,114.9,187,114.9z"/>
	<path fill="#1F9CA1" d="M173.7,108.5c0-1.2-1-2.2-2.2-2.2c-1.1,0-2,0.8-2.1,1.8c-0.9,3.9-4.3,6.8-8.5,6.8c-1.5,0-3-0.4-4.2-1.1
		c-0.7-0.4-0.8-1.4-0.1-1.9l12.4-8.8h0l1.7-1.2l0.2-0.2c1-0.7,1.2-2.1,0.5-3c-2.4-3.4-6.3-5.5-10.7-5.5c-7.2,0.1-12.9,5.9-12.9,13.1
		c0,7.2,5.8,13,13,13c6.3,0,11.5-4.4,12.8-10.3l0,0C173.6,108.8,173.7,108.7,173.7,108.5z M152.4,107.8c-0.1-0.5-0.1-1.1-0.1-1.6
		c0.1-4.7,3.9-8.5,8.6-8.6c1.5,0,2.9,0.4,4.1,1c0.8,0.4,0.8,1.5,0.1,2l-11.1,7.9C153.4,108.9,152.5,108.6,152.4,107.8z"/>
	<path fill="#1F9CA1" d="M130.2,115.3c0-1.2-1-2.2-2.2-2.2c-0.4,0-0.8,0.1-1.1,0.3l0,0c-1.4,0.9-3,1.5-4.8,1.5c-4.8,0-8.7-3.9-8.7-8.7
		c0-4.8,3.9-8.7,8.7-8.7c1.7,0,3.2,0.5,4.6,1.3c0.4,0.3,0.8,0.5,1.3,0.5c1.2,0,2.2-1,2.2-2.2c0-0.8-0.5-1.5-1.1-1.9
		c-2-1.3-4.4-2.1-7-2.1c-7.2,0-13,5.8-13,13c0,7.2,5.8,13,13,13c2.6,0,5-0.7,7-2C129.7,116.9,130.2,116.2,130.2,115.3z"/>
	<path fill="#1F9CA1" d="M141.9,93.3c-1.5,0-2.9,0.4-4.2,1c-0.4,0.2-0.9,0.1-1.2-0.2c-0.4-0.5-1-0.8-1.6-0.8c-1.2,0-2.2,1-2.2,2.2v21.7
		l0,0c0,1.2,1,2.2,2.2,2.2s2.2-1,2.2-2.2l0,0v-15.2c0.3-2.4,2.3-4.3,4.8-4.3c1.1,0,2,0.3,2.8,0.9c0.3,0.2,0.7,0.2,1-0.1l2.6-2.5
		C146.7,94.3,144.4,93.3,141.9,93.3z"/>
</g>
</svg>
