<?xml version="1.0" encoding="utf-8"?>
<!-- Generator: Adobe Illustrator 23.0.6, SVG Export Plug-In . SVG Version: 6.00 Build 0)  -->
<svg version="1.1" id="Layer_1" xmlns="http://www.w3.org/2000/svg" xmlns:xlink="http://www.w3.org/1999/xlink" x="0px" y="0px"
	 viewBox="0 0 200 200" style="enable-background:new 0 0 200 200;" xml:space="preserve">
<g>
	<path id="Path_157" fill="#E94F29" d="M51.8,102.7h8.1c1.5,0,3-0.4,4.3-1.2c0.2-0.2,0.5-0.2,0.7-0.2c0.4,0.1,0.6,0.5,0.5,0.9
		c0,0.1-0.1,0.3-0.2,0.4c-1,1-2,2-3,3c-1.9,1.9-3.8,3.9-5.8,5.8c-1.5,1.5-3.5,2.3-5.6,2.3h-9.6c-1.5-0.1-2.9,1-3,2.5
		c0,0.2,0,0.4,0,0.5v5.1c0,3.3-2,6.4-5.1,7.6c-3.1,1.2-6.6,0.5-8.9-1.8c-4.1-4.1-8.2-8.2-12.4-12.4c-2.5-2.5-5.1-5.1-7.6-7.6
		c-1-0.8-1.3-2.3-0.7-3.4c0.4-0.9,1.3-1.4,2.2-1.4c2.9,0,5.7,0,8.6,0c0.7,0,1.3,0.3,1.7,0.8l14.7,14.7c1,1.1,2.8,1.1,3.8,0.1
		c0.5-0.5,0.8-1.2,0.8-2c0-1.8,0-3.6,0-5.4c-0.1-4.5,3.6-8.2,8.1-8.3c0,0,0.1,0,0.1,0C46.3,102.7,49,102.7,51.8,102.7z"/>
	<path id="Path_158" fill="#E94F29" d="M13.7,97.3h-8c-1.6,0-3.2,0.4-4.5,1.2c-0.3,0.3-0.7,0.2-1-0.1c0,0,0,0,0,0
		c-0.3-0.3-0.2-0.7,0.1-1c3-3,5.9-6,8.9-8.9c1.5-1.5,3.6-2.3,5.7-2.2c3.1,0,6.2,0,9.3,0c1.5,0.2,2.9-0.9,3-2.4c0-0.2,0-0.4,0-0.6
		c0-1.8-0.1-3.6,0-5.4c0-3.2,2-6.1,5.1-7.2c3-1.3,6.5-0.7,8.8,1.7c3.2,3.1,6.3,6.2,9.4,9.4c3.6,3.6,7.2,7.2,10.9,10.9
		c1.1,1,1.1,2.8,0.1,3.9c0,0,0,0,0,0c-0.1,0.1-0.1,0.1-0.2,0.2c-0.5,0.4-1,0.6-1.6,0.6c-2.8,0-5.6,0-8.5,0c-0.7,0-1.5-0.4-1.9-0.9
		c-2.9-2.9-5.7-5.8-8.6-8.7l-5.9-5.9c-1-1.1-2.8-1.2-3.9-0.2c-0.4,0.4-0.7,0.8-0.8,1.4c0,0.2-0.1,0.5,0,0.8V89
		c0.1,4.5-3.5,8.2-8.1,8.3c-0.1,0-0.2,0-0.3,0C19,97.3,16.4,97.3,13.7,97.3z"/>
	<path id="Path_159" fill="#E94F29" d="M88.1,100.1c0-5.8,0-11.7,0-17.5c-0.1-1.2,0.8-2.3,2-2.4c0,0,0,0,0,0c0.9-0.2,1.7-0.2,2.6-0.2
		c4.7,0,9.5-0.1,14.2,0c6.9,0.1,12.3,5.7,12.3,12.5c0,0.3,0,0.6,0,1c-0.4,4.2-3,8-6.8,9.8c-0.5,0.3-0.5,0.2-0.1,0.7
		c1.1,1.2,2.2,2.5,3.3,3.8l9.1,10.4c0.1,0.1,0.2,0.3,0.4,0.4c0.5,0.6,0.3,1.2-0.4,1.3c-2,0.3-4,0.2-5.9-0.3
		c-0.5-0.2-0.9-0.5-1.2-0.9c-2.9-3.3-5.9-6.5-8.7-9.8c-0.9-1.2-2.1-2.1-3.4-2.9c-1.5-0.8-3.2-1.2-5-1.2h-1.5c-0.7,0-0.9-0.3-1-0.9
		c-0.1-1.2,0.1-2.3,0.5-3.4c0.3-0.9,1.2-1.4,2.1-1.3c1.9,0,3.8,0,5.7,0c3,0,5.7-1.9,6.7-4.8c1-3.1-0.4-6.4-3.3-7.9
		c-1.1-0.6-2.3-0.9-3.5-0.9c-3.9,0-7.7,0-11.6,0c-0.4,0-0.5,0.1-0.5,0.6c0,10.8,0,21.6,0,32.4c0,1-0.4,1.4-1.4,1.4
		c-0.9,0.1-1.7,0-2.6-0.1c-1.2-0.1-2.1-1.2-2-2.4C88.1,111.7,88.1,105.9,88.1,100.1z"/>
	<path id="Path_160" fill="#E94F29" d="M147.9,120.6c-8.7,0-16.5-5.4-19.6-13.5c-2.6-6.7-1.4-14.3,3.2-19.8c2.6-3.3,6.1-5.8,10.1-7
		c7.1-2.3,14.8-0.6,20.3,4.4c1.1,1,1.1,1.6-0.2,2.4c-0.9,0.6-1.9,1-2.9,1.3c-0.6,0.2-1.3,0.1-1.9-0.4c-6.6-4.9-15.9-3.5-20.8,3.1
		c-4.9,6.6-3.5,15.9,3.1,20.8c1.4,1,3,1.8,4.6,2.3c4.6,1.4,9.6,0.5,13.4-2.5c0.4-0.3,0.9-0.4,1.4-0.3c1.3,0.2,2.5,0.8,3.6,1.5
		c0.6,0.3,0.8,0.9,0.6,1.5c-0.1,0.2-0.2,0.4-0.4,0.5c-3.3,3.2-7.6,5.1-12.1,5.6C149.4,120.6,148.6,120.6,147.9,120.6z"/>
	<path id="Path_161" fill="#E94F29" d="M199.9,108L199.9,108c-0.3-2.2-1.4-4.3-3.1-5.7c-1.9-1.7-4.2-3-6.6-3.9c-2.7-1.2-5.5-1.9-8.2-3
		c-1.5-0.5-2.9-1.2-4.2-2.1c-1.1-0.7-1.8-1.9-1.8-3.3c0-1.7,1-3.2,2.5-3.9c2.1-1,4.4-1.4,6.7-1.1c2.8,0.3,5.4,1.3,7.6,3
		c0.3,0.3,0.8,0.5,1.2,0.4c1.5-0.3,2.9-0.9,4.1-1.9c0.4-0.3,0.5-0.9,0.2-1.3c0-0.1-0.1-0.1-0.2-0.2c-0.3-0.3-0.6-0.5-0.9-0.8
		c-3.3-2.8-7.4-4.5-11.7-4.9c-3.4-0.4-6.9,0.2-10,1.7c-3.1,1.4-5.3,4.3-5.6,7.8c-0.4,3.1,0.8,6.2,3.2,8.2c2.1,1.6,4.4,2.9,6.9,3.7
		c2.6,1.1,5.4,1.8,8,3c1.4,0.6,2.8,1.3,4,2.3c1.4,1.2,2,3.1,1.5,4.8c-0.5,1.6-1.7,2.8-3.3,3.3c-3.4,1.1-7.1,1.1-10.5-0.1
		c-1.7-0.5-3.2-1.3-4.6-2.4c-0.3-0.2-0.7-0.4-1.1-0.3c-1.6,0.2-3.2,0.9-4.4,1.9c-0.4,0.4-0.5,1.1-0.1,1.5c0.1,0.1,0.1,0.1,0.2,0.2
		c1.2,1.1,2.6,2,4,2.7c3.3,1.8,7,2.7,10.8,2.8c3.3,0.2,6.6-0.5,9.6-1.9c2.6-1.2,4.6-3.6,5.4-6.3c0.1-0.3,0.1-0.6,0.2-0.9l0,0
		C200,110.2,200.1,109.1,199.9,108z"/>
</g>
</svg>
