<?xml version="1.0" encoding="utf-8"?>
<!-- Generator: Adobe Illustrator 21.0.0, SVG Export Plug-In . SVG Version: 6.00 Build 0)  -->
<svg version="1.1" id="Шар_1" xmlns="http://www.w3.org/2000/svg" xmlns:xlink="http://www.w3.org/1999/xlink" x="0px" y="0px"
	 viewBox="0 0 13.9 13.9" style="enable-background: new 0 0 13.9 13.9;" xml:space="preserve">
<path id="Path_61" d="M13.7,12.9l-3.3-3.3c2-2.5,1.7-6.2-0.8-8.2S3.4-0.3,1.3,2.2s-1.7,6.2,0.8,8.2c2.2,1.8,5.3,1.8,7.4,0l3.3,3.3
	c0.2,0.2,0.6,0.2,0.8,0C14,13.5,14,13.2,13.7,12.9C13.8,12.9,13.7,12.9,13.7,12.9z M5.9,10.6c-2.6,0-4.7-2.1-4.7-4.7
	s2.1-4.7,4.7-4.7s4.7,2.1,4.7,4.7c0,0,0,0,0,0C10.6,8.5,8.5,10.6,5.9,10.6z"/>
</svg>
