<svg xmlns="http://www.w3.org/2000/svg" width="27" height="18" viewBox="0 0 27 18"><g><g><g><g><g><path d="M6.195 16.372c-.976 0-1.77-.793-1.77-1.77 0-.976.794-1.77 1.77-1.77s1.77.794 1.77 1.77c0 .977-.794 1.77-1.77 1.77zm0-4.425a2.658 2.658 0 0 0-2.655 2.655 2.658 2.658 0 0 0 2.655 2.655 2.658 2.658 0 0 0 2.655-2.655 2.658 2.658 0 0 0-2.655-2.655z"/></g></g></g><g><g><g><path d="M21.24 16.372c-.976 0-1.77-.793-1.77-1.77 0-.976.794-1.77 1.77-1.77s1.77.794 1.77 1.77c0 .977-.794 1.77-1.77 1.77zm0-4.425a2.658 2.658 0 0 0-2.655 2.655 2.658 2.658 0 0 0 2.655 2.655 2.658 2.658 0 0 0 2.655-2.655 2.658 2.658 0 0 0-2.655-2.655z"/></g></g></g><g><g><g><path d="M26.48 9.496L22.497 3.3a.443.443 0 0 0-.372-.204h-4.868a.442.442 0 0 0-.442.443v11.062c0 .245.198.443.442.443h1.77v-.885H17.7V3.983h4.183l3.782 5.882v4.295h-2.213v.885h2.655a.442.442 0 0 0 .443-.443V9.735a.441.441 0 0 0-.07-.24z"/></g></g></g><g><g><g><path d="M19.47 8.85V5.752h3.54v-.885h-3.983a.442.442 0 0 0-.442.443v3.982c0 .245.198.443.442.443h6.638V8.85H19.47z"/></g></g></g><g><g><g><path d="M17.257 0H.442A.443.443 0 0 0 0 .442v14.16c0 .245.198.443.442.443h3.54v-.885H.885V.885h15.93V14.16H8.407v.885h8.85a.442.442 0 0 0 .443-.443V.442A.442.442 0 0 0 17.257 0z"/></g></g></g><g><g><g><path d="M.442 13.275v-.885h2.655v.885z"/></g></g></g><g><g><g><path d="M9.292 13.275v-.885h7.523v.885z"/></g></g></g><g><g><g><path d="M24.337 13.275v-.885h1.77v.885z"/></g></g></g><g><g><g><path d="M1.77 2.655V1.77h15.487v.885z"/></g></g></g><g><g><g><path d="M5.752 15.045v-.885h.885v.885z"/></g></g></g><g><g><g><path d="M20.797 15.045v-.885h.885v.885z"/></g></g></g></g></g></svg>